<svg width="32" height="24" viewBox="0 0 32 24" fill="none" xmlns="http://www.w3.org/2000/svg">
<path d="M0.727417 0.00020839C0.631368 -0.00251551 0.535909 0.0214885 0.446778 0.0707781C0.357647 0.120068 0.276683 0.193625 0.208751 0.28703C0.140819 0.380436 0.0873226 0.49176 0.0514754 0.614315C0.0156281 0.73687 -0.00182948 0.868124 0.000151558 1.00019V3.00016C0.000151558 3.26537 0.076774 3.51972 0.213163 3.70725C0.349552 3.89478 0.534534 4.00014 0.727417 4.00014H31.2726C31.3686 4.00286 31.4641 3.97886 31.5532 3.92957C31.6424 3.88028 31.7233 3.80672 31.7912 3.71332C31.8592 3.61991 31.9127 3.50859 31.9485 3.38603C31.9844 3.26348 32.0018 3.13222 31.9998 3.00016V1.00019C31.9998 0.734979 31.9232 0.48063 31.7868 0.293097C31.6504 0.105563 31.4655 0.00020839 31.2726 0.00020839H0.727417ZM0.727417 10C0.631368 9.99731 0.535909 10.0213 0.446778 10.0706C0.357647 10.1199 0.276683 10.1935 0.208751 10.2869C0.140819 10.3803 0.0873226 10.4916 0.0514754 10.6141C0.0156281 10.7367 -0.00182948 10.868 0.000151558 11V13C0.000151558 13.2652 0.076774 13.5195 0.213163 13.7071C0.349552 13.8946 0.534534 14 0.727417 14H31.2726C31.3686 14.0027 31.4641 13.9787 31.5532 13.9294C31.6424 13.8801 31.7233 13.8065 31.7912 13.7131C31.8592 13.6197 31.9127 13.5084 31.9485 13.3859C31.9844 13.2633 32.0018 13.132 31.9998 13V11C31.9998 10.7348 31.9232 10.4805 31.7868 10.2929C31.6504 10.1054 31.4655 10 31.2726 10H0.727417ZM0.727417 19.9999C0.631368 19.9971 0.535909 20.0211 0.446778 20.0704C0.357647 20.1197 0.276683 20.1933 0.208751 20.2867C0.140819 20.3801 0.0873226 20.4914 0.0514754 20.614C0.0156281 20.7365 -0.00182948 20.8678 0.000151558 20.9998V22.9998C0.000151558 23.265 0.076774 23.5194 0.213163 23.7069C0.349552 23.8944 0.534534 23.9998 0.727417 23.9998H31.2726C31.3686 24.0025 31.4641 23.9785 31.5532 23.9292C31.6424 23.8799 31.7233 23.8064 31.7912 23.713C31.8592 23.6196 31.9127 23.5082 31.9485 23.3857C31.9844 23.2631 32.0018 23.1319 31.9998 22.9998V20.9998C31.9998 20.7346 31.9232 20.4803 31.7868 20.2927C31.6504 20.1052 31.4655 19.9999 31.2726 19.9999H0.727417Z" fill="#FF5900"/>
</svg>
